<svg width="512" height="512" viewBox="0 0 512 512" fill="none" xmlns="http://www.w3.org/2000/svg">
<g clip-path="url(#clip0)">
<rect width="512" height="512" fill="#82DFCA"/>
<g filter="url(#filter0_d)">
<path d="M352.514 80.1018L319.758 174.374L368.247 200.637C407.753 162.617 389.594 114.166 352.514 80.1018Z" fill="url(#paint0_linear)"/>
<path d="M280 190.5V40L357.938 190.5H280Z" fill="url(#paint1_linear)"/>
<path d="M57.4232 275.23L54.9668 266.218L153.594 240.195L162.019 255.736C155.557 268.505 139.966 266.63 132.978 264.096C125.324 275.259 112.101 272.995 106.447 270.467C100.403 279.438 85.9059 278.868 81.9156 276.849C78.8914 281.834 73.3842 283.307 67.3819 283.778C60.4033 284.326 58.4062 278.735 57.4232 275.23Z" fill="white"/>
<path fill-rule="evenodd" clip-rule="evenodd" d="M56.3865 271.426C56.925 270.159 57.9922 268.886 59.9572 268.242C60.1225 268.188 60.2966 268.13 60.4788 268.07C65.264 266.488 75.6475 263.056 79.9521 269.339C79.626 267.837 79.9758 264.439 83.9835 262.858C88.9931 260.882 99.51 257.433 104.966 266.46C104.981 263.46 106.911 257.169 114.517 256.006C117.951 255.555 125.375 257.488 129.212 268.249C130.559 267.139 131.826 265.773 132.969 264.109C131.853 260.184 131.557 255.531 135.027 254.105C140.618 251.807 145.744 256.427 148.404 265.541C153.737 264.607 158.925 261.851 162.019 255.736L153.594 240.195L54.9669 266.218L56.3865 271.426Z" fill="#D2ECF4"/>
<path d="M284.461 163.02L68.1829 204.267C49.7312 207.786 37.0865 224.901 39.1436 243.572L42.0001 269.5L134.994 245.821C143.799 243.579 152.994 247.655 157.245 255.685C162.896 266.359 157.689 279.559 146.272 283.499L55.0001 315L57.4574 324.654C63.8001 349.572 89.3367 364.452 114.143 357.685L134.362 352.169C160.787 344.96 188.072 357.156 211.308 371.66C229.952 383.297 251.915 389.271 274.305 388.317C278.317 420.41 278.595 479.525 239 528.23L532.5 527.23L375.277 226.27C466.34 221.712 453.66 167.153 441.746 115.893C440.926 112.365 440.109 108.852 439.331 105.373L344.033 178.42C327.836 164.937 306.097 158.893 284.461 163.02Z" fill="white"/>
<circle cx="262.5" cy="256.5" r="27.5" fill="#1E2529"/>
<path d="M307.105 275.879C304.667 274.583 301.64 275.509 300.343 277.947C299.047 280.386 299.973 283.413 302.411 284.709L307.105 275.879ZM310.741 289.137C313.18 290.434 316.207 289.508 317.503 287.069C318.8 284.631 317.874 281.604 315.435 280.307L310.741 289.137ZM302.411 284.709L310.741 289.137L315.435 280.307L307.105 275.879L302.411 284.709Z" fill="#FFCFE9"/>
<path d="M310.735 261.501C307.974 261.454 305.698 263.655 305.651 266.416C305.605 269.177 307.806 271.453 310.567 271.499L310.735 261.501ZM316.397 271.597C319.158 271.644 321.434 269.443 321.48 266.682C321.527 263.921 319.326 261.645 316.565 261.599L316.397 271.597ZM310.567 271.499L316.397 271.597L316.565 261.599L310.735 261.501L310.567 271.499Z" fill="#FFCFE9"/>
<path d="M292.67 295.356C291.289 292.965 292.109 289.907 294.5 288.526C296.891 287.146 299.949 287.965 301.33 290.356L292.67 295.356ZM304.33 295.553C305.711 297.944 304.891 301.002 302.5 302.383C300.109 303.763 297.051 302.944 295.67 300.553L304.33 295.553ZM301.33 290.356L304.33 295.553L295.67 300.553L292.67 295.356L301.33 290.356Z" fill="#FFCFE9"/>
<path fill-rule="evenodd" clip-rule="evenodd" d="M272.009 457.275L347.371 356.249C336.985 366.629 324.339 375.087 309.795 380.792C298.131 385.366 286.158 387.812 274.305 388.317C276.451 405.482 277.528 430.377 272.009 457.275Z" fill="#D2ECF4"/>
</g>
</g>
<defs>
<filter id="filter0_d" x="-11.0754" y="10" width="593.576" height="588.23" filterUnits="userSpaceOnUse" color-interpolation-filters="sRGB">
<feFlood flood-opacity="0" result="BackgroundImageFix"/>
<feColorMatrix in="SourceAlpha" type="matrix" values="0 0 0 0 0 0 0 0 0 0 0 0 0 0 0 0 0 0 127 0"/>
<feOffset dy="20"/>
<feGaussianBlur stdDeviation="25"/>
<feColorMatrix type="matrix" values="0 0 0 0 0.466368 0 0 0 0 0.8 0 0 0 0 0.761076 0 0 0 1 0"/>
<feBlend mode="normal" in2="BackgroundImageFix" result="effect1_dropShadow"/>
<feBlend mode="normal" in="SourceGraphic" in2="effect1_dropShadow" result="shape"/>
</filter>
<linearGradient id="paint0_linear" x1="349.5" y1="139.5" x2="347.5" y2="191" gradientUnits="userSpaceOnUse">
<stop stop-color="#4C9596"/>
<stop offset="1" stop-color="#3C6D88"/>
</linearGradient>
<linearGradient id="paint1_linear" x1="312" y1="131.5" x2="318.969" y2="190.5" gradientUnits="userSpaceOnUse">
<stop stop-color="#FFCFE8"/>
<stop offset="1" stop-color="#EFB0D1"/>
</linearGradient>
<clipPath id="clip0">
<rect width="512" height="512" fill="white"/>
</clipPath>
</defs>
</svg>
