<svg width="512" height="512" viewBox="0 0 512 512" fill="none" xmlns="http://www.w3.org/2000/svg">
<g clip-path="url(#clip0)">
<rect width="512" height="512" fill="#FE8585"/>
<g filter="url(#filter0_d)">
<path d="M220 98.144L263.498 187.966L316.356 172.25C317.406 117.431 270.306 96.0114 220 98.144Z" fill="url(#paint0_linear)"/>
<path d="M297.1 32.8285L379.883 199.03L297.024 183.951L297.1 32.8285Z" fill="url(#paint1_linear)"/>
<path fill-rule="evenodd" clip-rule="evenodd" d="M263.081 243.223C265.665 240.688 268.724 238.699 272.083 237.371C275.441 236.042 279.032 235.4 282.653 235.482C286.273 235.563 289.85 236.366 293.181 237.844C296.512 239.322 299.531 241.448 302.066 244.098C304.601 246.749 306.601 249.873 307.954 253.292L297.725 257.338C296.914 255.287 295.713 253.412 294.192 251.822C292.671 250.232 290.86 248.956 288.862 248.069C286.863 247.182 284.716 246.701 282.544 246.652C280.372 246.603 278.217 246.988 276.202 247.785C274.187 248.582 272.352 249.776 270.801 251.297C269.25 252.819 268.014 254.638 267.163 256.653C266.312 258.667 265.863 260.836 265.842 263.036C265.82 265.237 266.227 267.425 267.039 269.477L256.81 273.523C255.457 270.104 254.779 266.456 254.815 262.789C254.85 259.122 255.599 255.506 257.017 252.149C258.435 248.792 260.496 245.759 263.081 243.223Z" fill="#1F2529"/>
<path d="M322.734 268.255C320.511 266.616 317.381 267.088 315.742 269.311C314.103 271.533 314.575 274.663 316.798 276.302L322.734 268.255ZM324.39 281.902C326.612 283.542 329.742 283.069 331.382 280.847C333.021 278.624 332.548 275.494 330.326 273.855L324.39 281.902ZM316.798 276.302L324.39 281.902L330.326 273.855L322.734 268.255L316.798 276.302Z" fill="#FFCFE9"/>
<path d="M328.429 254.562C325.705 254.112 323.131 255.956 322.681 258.68C322.231 261.405 324.074 263.979 326.799 264.429L328.429 254.562ZM332.552 265.379C335.276 265.829 337.85 263.986 338.3 261.261C338.75 258.537 336.906 255.963 334.182 255.513L332.552 265.379ZM326.799 264.429L332.552 265.379L334.182 255.513L328.429 254.562L326.799 264.429Z" fill="#FFCFE9"/>
<path d="M305.602 285.409C304.587 282.841 305.845 279.936 308.413 278.92C310.981 277.904 313.886 279.163 314.901 281.73L305.602 285.409ZM317.108 287.31C318.124 289.878 316.866 292.783 314.298 293.798C311.73 294.814 308.825 293.556 307.809 290.988L317.108 287.31ZM314.901 281.73L317.108 287.31L307.809 290.988L305.602 285.409L314.901 281.73Z" fill="#FFCFE9"/>
<path fill-rule="evenodd" clip-rule="evenodd" d="M384.404 211.568L547.5 535.137L296.846 535.137L296.747 396.316C268.605 396.707 241.345 386.204 220.757 367.315C209.557 357.038 194.408 350.71 179.689 354.505L128.495 367.703C108.961 372.739 88.7337 362.441 81.3135 343.683L65.7624 304.369C58.6074 286.281 67.1151 265.78 84.975 258.073L239.715 191.299C244.461 188.535 249.475 186.091 254.739 184.009C257.834 182.785 260.952 181.711 264.083 180.783L289.337 169.886C309.065 161.372 330.599 162.359 348.704 170.931L390 74L390.296 74.2962C419.84 103.839 469.525 153.521 384.404 211.568Z" fill="white"/>
<path fill-rule="evenodd" clip-rule="evenodd" d="M296.797 465.943L385.299 349.594L385.118 349.681C373.198 366.625 356.365 380.397 335.661 388.586C320.252 394.681 304.29 397.055 288.771 396.136L288.771 396.136C291.418 396.293 294.079 396.354 296.747 396.317L296.797 465.943Z" fill="#E6CCD4"/>
<path d="M158.735 319.59C161.698 321.075 165.303 319.877 166.787 316.914C168.272 313.951 167.074 310.346 164.111 308.862L158.735 319.59ZM164.111 308.862L163.882 308.747L158.506 319.475L158.735 319.59L164.111 308.862ZM132.077 306.996L75.253 328.028L79.4184 339.282L136.243 318.25L132.077 306.996ZM163.882 308.747C153.98 303.785 142.464 303.151 132.077 306.996L136.243 318.25C143.514 315.558 151.575 316.002 158.506 319.475L163.882 308.747Z" fill="#E6CCD4"/>
<path fill-rule="evenodd" clip-rule="evenodd" d="M253.113 265.012C254.382 279.022 266.159 290 280.5 290C295.688 290 308 277.688 308 262.5C308 249.462 298.927 238.543 286.75 235.713C277.776 249.54 262.974 259.762 253.113 265.012Z" fill="#1F2529"/>
<path d="M335 210C332.239 210 330 212.239 330 215C330 217.761 332.239 220 335 220V210ZM350 205C350 202.239 347.761 200 345 200C342.239 200 340 202.239 340 205H350ZM335 220H336V210H335V220ZM350 206V205H340V206H350ZM336 220C343.732 220 350 213.732 350 206H340C340 208.209 338.209 210 336 210V220Z" fill="#CD5A7A"/>
<path d="M370 210C372.761 210 375 212.239 375 215C375 217.761 372.761 220 370 220V210ZM355 205C355 202.239 357.239 200 360 200C362.761 200 365 202.239 365 205H355ZM370 220H369V210H370V220ZM355 206V205H365V206H355ZM369 220C361.268 220 355 213.732 355 206H365C365 208.209 366.791 210 369 210V220Z" fill="#CD5A7A"/>
<path d="M370 235C372.761 235 375 232.761 375 230C375 227.239 372.761 225 370 225V235ZM355 240C355 242.761 357.239 245 360 245C362.761 245 365 242.761 365 240H355ZM370 225H369V235H370V225ZM355 239V240H365V239H355ZM369 225C361.268 225 355 231.268 355 239H365C365 236.791 366.791 235 369 235V225Z" fill="#CD5A7A"/>
<path d="M335 235C332.239 235 330 232.761 330 230C330 227.239 332.239 225 335 225V235ZM350 240C350 242.761 347.761 245 345 245C342.239 245 340 242.761 340 240H350ZM335 225H336V235H335V225ZM350 239V240H340V239H350ZM336 225C343.732 225 350 231.268 350 239H340C340 236.791 338.209 235 336 235V225Z" fill="#CD5A7A"/>
</g>
</g>
<defs>
<filter id="filter0_d" x="13.2301" y="-3.00012" width="584.27" height="608.137" filterUnits="userSpaceOnUse" color-interpolation-filters="sRGB">
<feFlood flood-opacity="0" result="BackgroundImageFix"/>
<feColorMatrix in="SourceAlpha" type="matrix" values="0 0 0 0 0 0 0 0 0 0 0 0 0 0 0 0 0 0 127 0"/>
<feOffset dy="20"/>
<feGaussianBlur stdDeviation="25"/>
<feColorMatrix type="matrix" values="0 0 0 0 0.95 0 0 0 0 0.437 0 0 0 0 0.47975 0 0 0 1 0"/>
<feBlend mode="normal" in2="BackgroundImageFix" result="effect1_dropShadow"/>
<feBlend mode="normal" in="SourceGraphic" in2="effect1_dropShadow" result="shape"/>
</filter>
<linearGradient id="paint0_linear" x1="258" y1="121.5" x2="303.5" y2="172.5" gradientUnits="userSpaceOnUse">
<stop stop-color="#CD5A7A"/>
<stop offset="1" stop-color="#BE365F"/>
</linearGradient>
<linearGradient id="paint1_linear" x1="346.638" y1="120.5" x2="361.5" y2="241" gradientUnits="userSpaceOnUse">
<stop stop-color="#FFA9C8"/>
<stop offset="1" stop-color="#E26CB3"/>
</linearGradient>
<clipPath id="clip0">
<rect width="512" height="512" fill="white"/>
</clipPath>
</defs>
</svg>
