<svg width="512" height="512" viewBox="0 0 512 512" fill="none" xmlns="http://www.w3.org/2000/svg">
<g clip-path="url(#clip0)">
<rect width="512" height="512" fill="#FBEA8F"/>
<g filter="url(#filter0_d)">
<path d="M403.788 120.072L347.749 202.654L387.788 240.572C435.788 214.072 430.788 162.572 403.788 120.072Z" fill="url(#paint0_linear)"/>
<path d="M365 45L380.846 230L309.342 185.5L365 45Z" fill="url(#paint1_linear)"/>
<path fill-rule="evenodd" clip-rule="evenodd" d="M255.976 228.131C259.313 226.724 262.889 226 266.5 226C270.111 226 273.687 226.724 277.024 228.131C280.36 229.539 283.392 231.601 285.945 234.201C288.499 236.801 290.525 239.888 291.907 243.285C293.289 246.682 294 250.323 294 254H283C283 251.794 282.573 249.609 281.744 247.571C280.915 245.533 279.699 243.681 278.167 242.121C276.635 240.561 274.816 239.323 272.814 238.479C270.812 237.635 268.667 237.2 266.5 237.2C264.333 237.2 262.188 237.635 260.186 238.479C258.184 239.323 256.365 240.561 254.833 242.121C253.301 243.681 252.085 245.533 251.256 247.571C250.427 249.609 250 251.794 250 254H239C239 250.323 239.711 246.682 241.093 243.285C242.475 239.888 244.501 236.801 247.055 234.201C249.608 231.601 252.64 229.539 255.976 228.131Z" fill="#1F2529"/>
<path d="M302.24 273.35C300.776 271.008 297.692 270.296 295.35 271.76C293.008 273.224 292.296 276.308 293.76 278.65L302.24 273.35ZM298.76 286.65C300.224 288.992 303.308 289.704 305.65 288.24C307.992 286.776 308.704 283.692 307.24 281.35L298.76 286.65ZM293.76 278.65L298.76 286.65L307.24 281.35L302.24 273.35L293.76 278.65Z" fill="#FFCFE9"/>
<path d="M312.572 262.713C310.205 261.292 307.133 262.06 305.713 264.428C304.292 266.795 305.06 269.867 307.428 271.287L312.572 262.713ZM312.428 274.287C314.795 275.708 317.867 274.94 319.287 272.572C320.708 270.205 319.94 267.133 317.572 265.713L312.428 274.287ZM307.428 271.287L312.428 274.287L317.572 265.713L312.572 262.713L307.428 271.287Z" fill="#FFCFE9"/>
<path d="M280 283C280 280.239 282.239 278 285 278C287.761 278 290 280.239 290 283H280ZM290 289C290 291.761 287.761 294 285 294C282.239 294 280 291.761 280 289H290ZM290 283V289H280V283H290Z" fill="#FFCFE9"/>
<path d="M314.367 169.593L84.8945 176.428C65.4519 177.025 50 192.959 50 212.411V254.689C50 274.862 65.0214 291.878 85.0385 294.38L117.94 298.493C144.754 301.845 165.179 323.004 181.12 344.824C193.597 361.901 210.876 375.247 230.97 382.875L180 512H405L384.159 268.625C441.38 286.08 455.746 239.449 468.36 198.507L468.361 198.503C469.076 196.182 469.786 193.879 470.497 191.607L378.385 204.604C365.371 182.871 341.296 168.766 314.367 169.593Z" fill="white"/>
<path fill-rule="evenodd" clip-rule="evenodd" d="M205.406 447.638L330.5 372L330.3 372.015C312.983 383.386 292.264 390 270 390C253.429 390 237.713 386.336 223.62 379.773L223.619 379.773C226.024 380.893 228.475 381.928 230.97 382.875L205.406 447.638Z" fill="#DDD5AC"/>
<path d="M240 260C238.167 269.667 239.7 291.2 260.5 300" stroke="#DDD5AC" stroke-width="12" stroke-linecap="round"/>
<path fill-rule="evenodd" clip-rule="evenodd" d="M50 246.477L62.0795 233.904C65.3006 230.551 71.0561 231.256 73.4106 235.494C80.525 248.3 99.2312 248.739 106.497 235.661C108.786 231.54 114.45 230.896 117.607 234.397L126.411 244.162C131.771 250.106 139.4 253.5 147.405 253.5H150.5C153.814 253.5 156.5 250.814 156.5 247.5C156.5 244.186 153.814 241.5 150.5 241.5H147.405C142.798 241.5 138.408 239.547 135.324 236.126L126.519 226.361C117.85 216.746 102.294 218.516 96.0067 229.833C93.464 234.41 86.5943 234.515 83.9005 229.666C77.7224 218.546 62.3778 216.273 53.4262 225.59L50 229.156V246.477Z" fill="#DDD5AC"/>
<circle cx="279.5" cy="251.5" r="27.5" fill="#1E2529"/>
</g>
</g>
<defs>
<filter id="filter0_d" x="0" y="15" width="520.497" height="567" filterUnits="userSpaceOnUse" color-interpolation-filters="sRGB">
<feFlood flood-opacity="0" result="BackgroundImageFix"/>
<feColorMatrix in="SourceAlpha" type="matrix" values="0 0 0 0 0 0 0 0 0 0 0 0 0 0 0 0 0 0 127 0"/>
<feOffset dy="20"/>
<feGaussianBlur stdDeviation="25"/>
<feColorMatrix type="matrix" values="0 0 0 0 0.94 0 0 0 0 0.82485 0 0 0 0 0.4794 0 0 0 0.8 0"/>
<feBlend mode="normal" in2="BackgroundImageFix" result="effect1_dropShadow"/>
<feBlend mode="normal" in="SourceGraphic" in2="effect1_dropShadow" result="shape"/>
</filter>
<linearGradient id="paint0_linear" x1="398" y1="161.5" x2="370" y2="216" gradientUnits="userSpaceOnUse">
<stop offset="0.0107424" stop-color="#D3B173"/>
<stop offset="1" stop-color="#BD7E43"/>
</linearGradient>
<linearGradient id="paint1_linear" x1="348.5" y1="138" x2="345.094" y2="230" gradientUnits="userSpaceOnUse">
<stop stop-color="#FFBBB8"/>
<stop offset="1" stop-color="#F49D99"/>
</linearGradient>
<clipPath id="clip0">
<rect width="512" height="512" fill="white"/>
</clipPath>
</defs>
</svg>
