<svg width="512" height="512" viewBox="0 0 512 512" fill="none" xmlns="http://www.w3.org/2000/svg">
<g clip-path="url(#clip0)">
<rect width="512" height="512" fill="#F4A97E"/>
<g filter="url(#filter0_d)">
<path d="M471.191 298.347L376.919 265.591L350.656 314.08C388.676 353.586 437.127 335.427 471.191 298.347Z" fill="url(#paint0_linear)"/>
<path d="M365 45L380.846 230L309.342 185.5L365 45Z" fill="url(#paint1_linear)"/>
<path d="M314.367 169.593L84.8945 176.428C65.4519 177.025 50 192.959 50 212.411V254.689C50 274.862 65.0214 291.878 85.0385 294.38L117.94 298.493C144.754 301.845 165.179 323.004 181.12 344.824C193.597 361.901 210.876 375.247 230.97 382.875L180 512H405L384.159 268.625C441.38 286.08 455.746 239.449 468.36 198.507L468.361 198.503C469.076 196.182 469.786 193.879 470.497 191.607L378.385 204.604C365.371 182.871 341.296 168.766 314.367 169.593Z" fill="white"/>
<path fill-rule="evenodd" clip-rule="evenodd" d="M205.406 447.638L330.5 372L330.3 372.015C312.983 383.386 292.264 390 270 390C253.429 390 237.713 386.336 223.62 379.773L223.619 379.773C226.024 380.893 228.475 381.928 230.97 382.875L205.406 447.638Z" fill="#ECD1C8"/>
<path d="M145.986 238.918C149.255 238.374 151.463 235.282 150.918 232.014C150.374 228.745 147.282 226.537 144.014 227.082L145.986 238.918ZM144.014 227.082L143.198 227.218L145.171 239.054L145.986 238.918L144.014 227.082ZM121.662 229H50V241H121.662V229ZM143.198 227.218C136.08 228.404 128.877 229 121.662 229V241C129.538 241 137.401 240.349 145.171 239.054L143.198 227.218Z" fill="#ECD1C8"/>
<circle cx="279.5" cy="251.5" r="27.5" fill="#1E2529"/>
<path d="M310.24 286.35C308.776 284.008 305.692 283.296 303.35 284.76C301.008 286.224 300.296 289.308 301.76 291.65L310.24 286.35ZM306.76 299.65C308.224 301.992 311.308 302.704 313.65 301.24C315.992 299.776 316.704 296.692 315.24 294.35L306.76 299.65ZM301.76 291.65L306.76 299.65L315.24 294.35L310.24 286.35L301.76 291.65Z" fill="#FFCFE9"/>
<path d="M320.572 275.713C318.205 274.292 315.133 275.06 313.713 277.428C312.292 279.795 313.06 282.867 315.428 284.287L320.572 275.713ZM320.428 287.287C322.795 288.708 325.867 287.94 327.287 285.572C328.708 283.205 327.94 280.133 325.572 278.713L320.428 287.287ZM315.428 284.287L320.428 287.287L325.572 278.713L320.572 275.713L315.428 284.287Z" fill="#FFCFE9"/>
<path d="M288 296C288 293.239 290.239 291 293 291C295.761 291 298 293.239 298 296H288ZM298 302C298 304.761 295.761 307 293 307C290.239 307 288 304.761 288 302H298ZM298 296V302H288V296H298Z" fill="#FFCFE9"/>
</g>
</g>
<defs>
<filter id="filter0_d" x="0" y="15" width="521.293" height="567" filterUnits="userSpaceOnUse" color-interpolation-filters="sRGB">
<feFlood flood-opacity="0" result="BackgroundImageFix"/>
<feColorMatrix in="SourceAlpha" type="matrix" values="0 0 0 0 0 0 0 0 0 0 0 0 0 0 0 0 0 0 127 0"/>
<feOffset dy="20"/>
<feGaussianBlur stdDeviation="25"/>
<feColorMatrix type="matrix" values="0 0 0 0 0.9125 0 0 0 0 0.572847 0 0 0 0 0.403021 0 0 0 1 0"/>
<feBlend mode="normal" in2="BackgroundImageFix" result="effect1_dropShadow"/>
<feBlend mode="normal" in="SourceGraphic" in2="effect1_dropShadow" result="shape"/>
</filter>
<linearGradient id="paint0_linear" x1="437" y1="306.5" x2="331" y2="245.5" gradientUnits="userSpaceOnUse">
<stop stop-color="#BA6D55"/>
<stop offset="1" stop-color="#B84040"/>
</linearGradient>
<linearGradient id="paint1_linear" x1="350" y1="133" x2="345.094" y2="230" gradientUnits="userSpaceOnUse">
<stop stop-color="#FFCBDF"/>
<stop offset="1" stop-color="#F89EAE"/>
</linearGradient>
<clipPath id="clip0">
<rect width="512" height="512" fill="white"/>
</clipPath>
</defs>
</svg>
