<svg width="512" height="512" viewBox="0 0 512 512" fill="none" xmlns="http://www.w3.org/2000/svg">
<g clip-path="url(#clip0)">
<rect width="512" height="512" fill="#FCC1E3"/>
<g filter="url(#filter0_d)">
<path d="M427.437 133.128L349.958 196.034L377.358 243.89C430.961 232.363 445.445 189.547 427.437 133.128Z" fill="url(#paint0_linear)"/>
<path d="M360 50L374.394 240L294.405 209.5L360 50Z" fill="url(#paint1_linear)"/>
<path d="M324.577 168.965L98.7238 116.51C79.6915 112.056 60.5821 123.602 55.6735 142.522L44.4979 185.599C40.1497 202.359 48.3487 219.84 64.0155 227.213L115.715 251.737C136.654 261.669 148.614 283.398 156.452 305.208C167.806 336.8 193.207 361.694 225.123 372.356C225.123 400.5 201 451.5 155 512H395L377.251 276.295C426.379 305.115 451.849 264.55 474.256 228.861C475.548 226.803 476.831 224.761 478.106 222.75L372.567 206.86C363.194 188.135 345.865 173.947 324.577 168.965Z" fill="white"/>
<path fill-rule="evenodd" clip-rule="evenodd" d="M48.4038 170.989L98.4628 185.098C107.7 187.702 117.529 187.284 126.512 183.906L128.612 183.116C131.714 181.949 133.283 178.49 132.116 175.388C130.95 172.286 127.49 170.718 124.388 171.884L122.288 172.674C115.7 175.152 108.493 175.458 101.718 173.549L51.4179 159.371L48.4038 170.989Z" fill="#F3DBF2"/>
<path fill-rule="evenodd" clip-rule="evenodd" d="M202.893 438.695L318.479 361.185C301.539 371.838 281.489 378 260 378C247.808 378 236.08 376.016 225.12 372.355C224.946 388.078 217.411 411.055 202.893 438.695Z" fill="#F3DBF2"/>
<path fill-rule="evenodd" clip-rule="evenodd" d="M264.904 252.351C261.31 252.795 257.672 252.516 254.198 251.531C250.723 250.545 247.481 248.873 244.655 246.609C241.829 244.345 239.475 241.534 237.727 238.336C235.98 235.138 234.873 231.615 234.471 227.97C234.068 224.325 234.377 220.628 235.38 217.09L245.963 220.091C245.361 222.214 245.175 224.432 245.417 226.619C245.659 228.806 246.323 230.92 247.371 232.839C248.42 234.757 249.832 236.444 251.527 237.803C253.223 239.161 255.169 240.164 257.253 240.756C259.338 241.347 261.521 241.514 263.677 241.248C265.833 240.982 267.921 240.287 269.82 239.205C271.72 238.122 273.395 236.672 274.748 234.937C276.102 233.202 277.109 231.217 277.711 229.094L288.293 232.095C287.29 235.633 285.613 238.942 283.356 241.833C281.1 244.724 278.309 247.141 275.143 248.946C271.977 250.751 268.498 251.908 264.904 252.351Z" fill="#1F2529"/>
<path d="M290.24 262.35C288.776 260.008 285.692 259.296 283.35 260.76C281.008 262.223 280.296 265.308 281.76 267.65L290.24 262.35ZM286.76 275.65C288.224 277.991 291.308 278.703 293.65 277.24C295.992 275.776 296.704 272.692 295.24 270.35L286.76 275.65ZM281.76 267.65L286.76 275.65L295.24 270.35L290.24 262.35L281.76 267.65Z" fill="#FFCFE9"/>
<path d="M300.572 251.712C298.205 250.292 295.133 251.059 293.713 253.427C292.292 255.795 293.06 258.867 295.428 260.287L300.572 251.712ZM300.428 263.287C302.795 264.708 305.867 263.94 307.287 261.572C308.708 259.204 307.94 256.133 305.572 254.712L300.428 263.287ZM295.428 260.287L300.428 263.287L305.572 254.712L300.572 251.712L295.428 260.287Z" fill="#FFCFE9"/>
<path d="M268 272C268 269.238 270.239 267 273 267C275.761 267 278 269.238 278 272H268ZM278 278C278 280.761 275.761 283 273 283C270.239 283 268 280.761 268 278H278ZM278 272V278H268V272H278Z" fill="#FFCFE9"/>
</g>
</g>
<defs>
<filter id="filter0_d" x="-6.66016" y="20" width="534.766" height="562" filterUnits="userSpaceOnUse" color-interpolation-filters="sRGB">
<feFlood flood-opacity="0" result="BackgroundImageFix"/>
<feColorMatrix in="SourceAlpha" type="matrix" values="0 0 0 0 0 0 0 0 0 0 0 0 0 0 0 0 0 0 127 0"/>
<feOffset dy="20"/>
<feGaussianBlur stdDeviation="25"/>
<feColorMatrix type="matrix" values="0 0 0 0 0.92 0 0 0 0 0.6992 0 0 0 0 0.83904 0 0 0 1 0"/>
<feBlend mode="normal" in2="BackgroundImageFix" result="effect1_dropShadow"/>
<feBlend mode="normal" in="SourceGraphic" in2="effect1_dropShadow" result="shape"/>
</filter>
<linearGradient id="paint0_linear" x1="407" y1="170" x2="355" y2="231" gradientUnits="userSpaceOnUse">
<stop stop-color="#BE7DB3"/>
<stop offset="1" stop-color="#B669B8"/>
</linearGradient>
<linearGradient id="paint1_linear" x1="347.5" y1="117.5" x2="334.399" y2="240" gradientUnits="userSpaceOnUse">
<stop stop-color="#E397C4"/>
<stop offset="1" stop-color="#C75B9B"/>
</linearGradient>
<clipPath id="clip0">
<rect width="512" height="512" fill="white"/>
</clipPath>
</defs>
</svg>
